<svg viewBox="0 0 96 65" fill="none" xmlns="http://www.w3.org/2000/svg">
  <path
    d="M62.831 42.45L43.091 8.146 57.274 0l24.545 42.45H62.831zM10.256 37.644l14.18-8.2L31.94 42.45H13.008l-2.752-4.806zM38.084 64.336h4.036V48.01h-4.036v16.327zM88.662 64.722c-4.513 0-7.228-2.33-7.375-5.614h4.256c0 1.027.642 2.532 3.394 2.587 1.835 0 2.697-1.083 2.697-1.89-.11-1.284-1.725-1.394-3.45-1.67-1.724-.274-3.191-.586-4.255-1.137-1.358-.697-2.275-2.201-2.275-3.925 0-2.917 2.532-5.229 6.751-5.229 4.091 0 6.678 2.146 6.953 5.338h-4.11c-.036-.862-.201-2.22-2.623-2.22-1.633 0-2.715.331-2.807 1.468 0 1.67 3.394 1.56 6.036 2.257 2.531.642 4.146 2.22 4.146 4.421 0 4.054-3.284 5.614-7.338 5.614zM26.875 23.078l14.18-8.182 15.906 27.555H42.12v4.035h-4.036v-4.054L26.875 23.078z"
    fill="#fff" />
  <path fill-rule="evenodd" clip-rule="evenodd"
    d="M27.243 64.722c-4.697 0-8.512-3.835-8.512-8.476 0-4.696 3.815-8.402 8.512-8.402 1.78 0 3.393.477 4.806 1.45V42.45h4.036v21.885h-4.036v-1.082c-1.413.917-3.027 1.468-4.806 1.468zM22.6 56.246c0 2.532 2.165 4.641 4.752 4.641 2.531 0 4.696-2.11 4.696-4.64 0-2.532-2.165-4.697-4.696-4.697-2.587 0-4.752 2.165-4.752 4.696zM57.072 42.45h3.981v21.886h-3.98v-1.082a8.645 8.645 0 01-4.862 1.468c-4.641 0-8.457-3.835-8.457-8.476 0-4.696 3.816-8.402 8.457-8.402 1.834 0 3.449.477 4.861 1.45V42.45zM47.68 56.247c0 2.532 2.164 4.641 4.641 4.641 2.587 0 4.752-2.11 4.752-4.64 0-2.532-2.165-4.697-4.752-4.697-2.477 0-4.641 2.165-4.641 4.696zM70.867 64.722c-4.623 0-8.457-3.834-8.457-8.476 0-4.696 3.834-8.402 8.457-8.402 1.78 0 3.45.477 4.807 1.45V47.99h4.036v16.345h-4.036v-1.082a8.465 8.465 0 01-4.807 1.468zm-4.531-8.476c0 2.532 2.165 4.642 4.696 4.642 2.532 0 4.642-2.11 4.642-4.642 0-2.532-2.11-4.696-4.642-4.696-2.531 0-4.696 2.165-4.696 4.696zM3.89 56.246c0 2.532 2.164 4.642 4.696 4.642 2.586 0 4.75-2.11 4.75-4.642 0-2.532-2.164-4.696-4.75-4.696-2.532 0-4.697 2.165-4.697 4.696zm4.585 8.476C3.835 64.722 0 60.888 0 56.246c0-4.696 3.834-8.402 8.475-8.402 1.78 0 3.45.477 4.862 1.45V47.99h3.98v16.345h-3.98v-1.082a8.644 8.644 0 01-4.862 1.468z"
    fill="#fff" />
</svg>