<svg viewBox="0 0 96 34" fill="none" xmlns="http://www.w3.org/2000/svg">
  <path
    d="M10.59 33.986c-2.86-.113-5.201-.89-7.031-2.335-.35-.276-1.181-1.104-1.46-1.453-.743-.927-1.247-1.83-1.584-2.83C-.52 24.286.013 20.24 2.04 15.803c1.735-3.8 4.413-7.569 9.084-12.789C11.812 2.246 13.862 0 13.875 0c.005 0-.107.192-.247.426-1.215 2.022-2.254 4.404-2.82 6.466-.91 3.308-.8 6.147.32 8.349.774 1.516 2.1 2.83 3.591 3.556 2.61 1.271 6.432 1.376 11.098.308.322-.074 16.243-4.274 35.381-9.334S95.998.574 96 .578c.005.004-44.464 18.914-67.548 28.724-3.656 1.553-4.634 1.945-6.352 2.545-4.394 1.533-8.33 2.265-11.51 2.14z"
    fill="#fff" />
</svg>