<svg viewBox="0 0 159 26" fill="none" xmlns="http://www.w3.org/2000/svg">
  <path
    d="M75.121 12.767c2.236-.7 2.128-3.259 2.128-3.259 0-4.067-4.821-3.77-4.821-3.77H58.26v13.494h4.687v-4.229h7.81c2.263 0 2.29 1.993 2.29 1.993v2.236h4.499v-3.017c0-2.64-2.425-3.448-2.425-3.448zm-3.798-1.023h-8.376V9.427s7.73 0 8.511.027c.808.027 1.212.35 1.212 1.078 0 1.347-1.347 1.212-1.347 1.212zM78.408 9.427h7.353v9.832h4.633V9.427h7.354V5.764h-19.34v3.663zM138.957 5.764v3.663h7.353v9.832h4.633V9.427h7.354V5.764h-19.34zM101.196 5.764h-2.048V19.26h4.633v-4.445h8.539v-3.42h-8.539V9.427h13.091V5.764h-15.676zM137.638 5.791l-7.461-.027-7.273 4.525V5.764h-4.633V19.26h4.633v-5.657l8.162 5.657h7.434l-10.693-7.354 9.831-6.114zM32.888 14.33c5.333 2.666 20.956 11.312 20.956 11.312l-9.24-14.922a11.032 11.032 0 00-5.71-4.579l-11.258-3.96c5.333 6.088.7 4.876-.485 4.714C20.2 5.953 0 0 0 0l30.706 18.936c-6.141-8.458 1.05-5.172 2.182-4.606z"
    fill="#fff" />
</svg>