<svg viewBox="0 0 14 11" fill="none" xmlns="http://www.w3.org/2000/svg">
<path d="M11.2867 1.32765C10.4368 0.944345 9.52575 0.66103 8.57304 0.49993C8.56455 0.498301 8.55577 0.499351 8.54791 0.502934C8.54004 0.506517 8.53349 0.512456 8.52915 0.519929C8.41249 0.724915 8.2825 0.99212 8.19139 1.20322C7.18096 1.05225 6.1537 1.05225 5.14326 1.20322C5.04179 0.969266 4.92736 0.74115 4.80051 0.519929C4.79621 0.512364 4.7897 0.50629 4.78186 0.502519C4.77402 0.498747 4.76521 0.497456 4.75662 0.498819C3.80446 0.659919 2.89341 0.943234 2.04291 1.3271C2.03559 1.33017 2.02939 1.3354 2.02513 1.3421C0.296359 3.8836 -0.177499 6.36232 0.0552634 8.80994C0.0559111 8.81593 0.0577718 8.82173 0.0607324 8.82699C0.063693 8.83224 0.0676915 8.83683 0.0724845 8.84049C1.08153 9.57512 2.20698 10.1348 3.40171 10.4959C3.41004 10.4985 3.41895 10.4985 3.42727 10.4959C3.4356 10.4933 3.44295 10.4883 3.44837 10.4815C3.70502 10.1371 3.9339 9.77321 4.12944 9.39101C4.14111 9.36879 4.13 9.34213 4.10666 9.33324C3.7478 9.1981 3.40009 9.03501 3.06673 8.84549C3.06074 8.84207 3.05569 8.83722 3.05204 8.83137C3.04839 8.82552 3.04625 8.81885 3.04581 8.81197C3.04537 8.80509 3.04664 8.7982 3.04952 8.79193C3.0524 8.78566 3.05678 8.78021 3.06229 8.77605C3.13228 8.72439 3.20228 8.6705 3.26894 8.61662C3.27494 8.61177 3.28217 8.60869 3.28982 8.60771C3.29747 8.60673 3.30524 8.60789 3.31227 8.61106C5.49379 9.591 7.85642 9.591 10.0124 8.61106C10.0194 8.6077 10.0273 8.60639 10.035 8.60727C10.0428 8.60815 10.0502 8.6112 10.0563 8.61606C10.1229 8.6705 10.1924 8.72439 10.2629 8.77605C10.2685 8.78012 10.2729 8.7855 10.2759 8.79172C10.2789 8.79793 10.2803 8.80479 10.2799 8.81167C10.2796 8.81855 10.2776 8.82524 10.274 8.83114C10.2705 8.83704 10.2655 8.84197 10.2596 8.84549C9.92739 9.03659 9.58186 9.19825 9.2191 9.33268C9.21353 9.33471 9.20846 9.33789 9.20422 9.34203C9.19998 9.34617 9.19667 9.35117 9.19451 9.35669C9.19236 9.36221 9.1914 9.36813 9.19172 9.37405C9.19203 9.37997 9.1936 9.38575 9.19633 9.39101C9.39632 9.77265 9.62519 10.136 9.87684 10.4809C9.88207 10.488 9.88936 10.4933 9.89771 10.4961C9.90606 10.4989 9.91507 10.499 9.9235 10.4965C11.1203 10.1363 12.2476 9.57643 13.2577 8.84049C13.2627 8.83705 13.2668 8.83259 13.2699 8.82741C13.2729 8.82224 13.2748 8.81647 13.2755 8.81049C13.5533 5.98068 12.81 3.52195 11.304 1.34321C11.3003 1.33613 11.2942 1.33061 11.2867 1.32765ZM4.45553 7.31948C3.79891 7.31948 3.25728 6.72563 3.25728 5.99735C3.25728 5.26851 3.78835 4.67521 4.45553 4.67521C5.12771 4.67521 5.66434 5.2735 5.65378 5.99735C5.65378 6.72619 5.12271 7.31948 4.45553 7.31948ZM8.88579 7.31948C8.22861 7.31948 7.68754 6.72563 7.68754 5.99735C7.68754 5.26851 8.21806 4.67521 8.88579 4.67521C9.55797 4.67521 10.0946 5.2735 10.084 5.99735C10.084 6.72619 9.55853 7.31948 8.88579 7.31948Z" fill="currentColor"/>
</svg>
