<svg width="11" height="10" viewBox="0 0 11 10" fill="none" xmlns="http://www.w3.org/2000/svg">
  <path fill-rule="evenodd" clip-rule="evenodd" d="M3.08317 0.03C3.61635 0.00545454 3.78635 0 5.14453 0C6.50271 0 6.67271 0.00590908 7.20544 0.03C7.73817 0.0540909 8.1018 0.139091 8.41999 0.262273C8.75317 0.388182 9.05544 0.585 9.30544 0.839545C9.55999 1.08909 9.75635 1.39091 9.8818 1.72455C10.0054 2.04273 10.09 2.40636 10.1145 2.93818C10.1391 3.47227 10.1445 3.64227 10.1445 5C10.1445 6.35818 10.1386 6.52818 10.1145 7.06136C10.0904 7.59318 10.0054 7.95682 9.8818 8.275C9.75635 8.60868 9.55966 8.911 9.30544 9.16091C9.05544 9.41545 8.75317 9.61182 8.41999 9.73727C8.1018 9.86091 7.73817 9.94545 7.20635 9.97C6.67271 9.99455 6.50271 10 5.14453 10C3.78635 10 3.61635 9.99409 3.08317 9.97C2.55135 9.94591 2.18771 9.86091 1.86953 9.73727C1.53586 9.6118 1.23354 9.41512 0.983622 9.16091C0.729249 8.91121 0.532402 8.60904 0.406804 8.27545C0.283622 7.95727 0.199077 7.59364 0.174531 7.06182C0.149986 6.52773 0.144531 6.35773 0.144531 5C0.144531 3.64182 0.15044 3.47182 0.174531 2.93909C0.198622 2.40636 0.283622 2.04273 0.406804 1.72455C0.532587 1.39095 0.729585 1.08878 0.984077 0.839091C1.23364 0.584773 1.53566 0.387929 1.86908 0.262273C2.18726 0.139091 2.55089 0.0545455 3.08271 0.03H3.08317ZM7.16499 0.93C6.63771 0.905909 6.47953 0.900909 5.14453 0.900909C3.80953 0.900909 3.65135 0.905909 3.12408 0.93C2.63635 0.952273 2.3718 1.03364 2.19544 1.10227C1.96226 1.19318 1.79544 1.30091 1.62044 1.47591C1.45455 1.6373 1.32689 1.83376 1.2468 2.05091C1.17817 2.22727 1.0968 2.49182 1.07453 2.97955C1.05044 3.50682 1.04544 3.665 1.04544 5C1.04544 6.335 1.05044 6.49318 1.07453 7.02045C1.0968 7.50818 1.17817 7.77273 1.2468 7.94909C1.3268 8.16591 1.45453 8.36273 1.62044 8.52409C1.7818 8.69 1.97862 8.81773 2.19544 8.89773C2.3718 8.96636 2.63635 9.04773 3.12408 9.07C3.65135 9.09409 3.80908 9.09909 5.14453 9.09909C6.47999 9.09909 6.63771 9.09409 7.16499 9.07C7.65271 9.04773 7.91726 8.96636 8.09362 8.89773C8.3268 8.80682 8.49362 8.69909 8.66862 8.52409C8.83453 8.36273 8.96226 8.16591 9.04226 7.94909C9.1109 7.77273 9.19226 7.50818 9.21453 7.02045C9.23862 6.49318 9.24362 6.335 9.24362 5C9.24362 3.665 9.23862 3.50682 9.21453 2.97955C9.19226 2.49182 9.1109 2.22727 9.04226 2.05091C8.95135 1.81773 8.84362 1.65091 8.66862 1.47591C8.50723 1.31003 8.31076 1.18237 8.09362 1.10227C7.91726 1.03364 7.65271 0.952273 7.16499 0.93ZM4.5059 6.54136C4.86256 6.68983 5.2597 6.70987 5.6295 6.59806C5.99929 6.48624 6.3188 6.24951 6.53344 5.92829C6.74809 5.60708 6.84456 5.2213 6.80637 4.83687C6.76819 4.45243 6.59772 4.09317 6.32408 3.82045C6.14964 3.64613 5.93872 3.51264 5.7065 3.42961C5.47428 3.34658 5.22654 3.31607 4.98112 3.34028C4.7357 3.36449 4.49869 3.44281 4.28717 3.5696C4.07565 3.6964 3.89487 3.86852 3.75785 4.07357C3.62083 4.27862 3.53098 4.5115 3.49477 4.75544C3.45855 4.99938 3.47687 5.24831 3.54841 5.48433C3.61995 5.72034 3.74293 5.93755 3.9085 6.12033C4.07406 6.30311 4.27809 6.4469 4.5059 6.54136ZM3.32726 3.18273C3.56591 2.94408 3.84922 2.75477 4.16103 2.62562C4.47284 2.49646 4.80703 2.42999 5.14453 2.42999C5.48203 2.42999 5.81622 2.49646 6.12803 2.62562C6.43984 2.75477 6.72316 2.94408 6.9618 3.18273C7.20045 3.42138 7.38976 3.70469 7.51891 4.0165C7.64807 4.32831 7.71454 4.6625 7.71454 5C7.71454 5.3375 7.64807 5.67169 7.51891 5.9835C7.38976 6.29531 7.20045 6.57863 6.9618 6.81727C6.47983 7.29924 5.82614 7.57001 5.14453 7.57001C4.46292 7.57001 3.80923 7.29924 3.32726 6.81727C2.84529 6.3353 2.57452 5.68161 2.57452 5C2.57452 4.31839 2.84529 3.6647 3.32726 3.18273ZM8.28453 2.81273C8.34367 2.75694 8.39101 2.68986 8.42376 2.61544C8.45651 2.54103 8.47399 2.4608 8.47518 2.37951C8.47636 2.29822 8.46122 2.21752 8.43066 2.14219C8.4001 2.06685 8.35473 1.99841 8.29724 1.94093C8.23975 1.88344 8.17132 1.83807 8.09598 1.80751C8.02065 1.77694 7.93994 1.76181 7.85865 1.76299C7.77736 1.76418 7.69714 1.78166 7.62273 1.81441C7.54831 1.84715 7.48123 1.8945 7.42544 1.95364C7.31695 2.06865 7.25755 2.22142 7.25985 2.37951C7.26216 2.53761 7.32598 2.68858 7.43778 2.80038C7.54959 2.91218 7.70056 2.97601 7.85865 2.97832C8.01675 2.98062 8.16952 2.92122 8.28453 2.81273Z" fill="#131E2F"/>
</svg>
