<svg viewBox="0 0 62 61" fill="none" xmlns="http://www.w3.org/2000/svg">
<path d="M50.2929 60.5H3C1.61929 60.5 0.5 59.3807 0.5 58V3C0.5 1.61929 1.61929 0.5 3 0.5H58.5C59.8807 0.5 61 1.61929 61 3V49.7929L55.6464 55.1464L50.2929 60.5Z" stroke="currentColor" stroke-opacity="1"/>
<path d="M50.2929 60.5H3C1.61929 60.5 0.5 59.3807 0.5 58V3C0.5 1.61929 1.61929 0.5 3 0.5H58.5C59.8807 0.5 61 1.61929 61 3V49.7929L55.6464 55.1464L50.2929 60.5Z" stroke="currentColor" stroke-opacity="0.1"/>
<path d="M37.2769 21.7089L37.2811 21.7047L35.6031 20L29.9664 25.7263L24.3886 20.0593L24.3852 20.0632L24.3825 20.0605L17 27.5605L18.678 29.2656L24.3863 23.4664L29.9592 29.1284L30.1261 28.9592L30.1333 28.9666L35.5989 23.4136L41.3216 29.2278L43 27.5231L37.2769 21.7089Z" fill="currentColor"/>
<path d="M35.555 25.2898L34.7786 26.0786L29.9225 31.0119L24.3833 25.3842L22.705 27.0893L29.9274 34.4263L31.6054 32.7216L31.6005 32.7166L35.555 28.6996L36.6306 29.7923L29.9388 36.591L21.5754 28.0946L19.8975 29.7997L29.9384 40L31.2735 38.6437L31.2739 38.6441L38.5347 31.2678L38.5313 31.2643L39.9836 29.7893L35.555 25.2898Z" fill="currentColor"/>
</svg>
