<svg viewBox="0 0 60 61" fill="none" xmlns="http://www.w3.org/2000/svg">
<path d="M0.5 3C0.5 1.61929 1.61929 0.5 3 0.5H57C58.3807 0.5 59.5 1.61929 59.5 3V49.7929L54.1464 55.1464L48.7929 60.5H3C1.61929 60.5 0.5 59.3807 0.5 58V3Z" stroke="currentColor" stroke-opacity="1"/>
<path d="M0.5 3C0.5 1.61929 1.61929 0.5 3 0.5H57C58.3807 0.5 59.5 1.61929 59.5 3V49.7929L54.1464 55.1464L48.7929 60.5H3C1.61929 60.5 0.5 59.3807 0.5 58V3Z" stroke="currentColor" stroke-opacity="0.1"/>
<line x1="18" y1="27.5" x2="42" y2="27.5" stroke="currentColor"/>
<line x1="18" y1="30.5" x2="42" y2="30.5" stroke="currentColor"/>
<line x1="18" y1="33.5" x2="42" y2="33.5" stroke="currentColor"/>
</svg>
