<svg width="81" height="27" viewBox="0 0 81 27" fill="none" xmlns="http://www.w3.org/2000/svg">
  <g clip-path="url(#prefix__clip0_722_92)" fill="var(--color-white)">
    <path
      d="M22.178 14.466v-.023H10.865v2.665h11.313v-2.642zM38.084 21.631h7.498v-2.666h-7.498l-2.691-.016v8.042h11.316v-2.666h-8.625v-2.694zM47.674 26.975h2.691V21.42l-2.691-2.664v8.22z" />
    <path
      d="M77.095 19.381h-3.638c-.301.005-.591-.108-.81-.313a1.135 1.135 0 01-.06-1.592 1.155 1.155 0 01.87-.373h4.21c.204.07.38.2.505.372.125.173.193.38.193.593H81a3.607 3.607 0 00-.922-2.411 3.672 3.672 0 00-2.307-1.195h-4.774a3.882 3.882 0 00-1.662.611 3.839 3.839 0 00-1.21 1.282 3.737 3.737 0 00-.35.819 6.281 6.281 0 00-2.043-1.883 6.348 6.348 0 00-2.664-.824h-.032l-7.099-.01h-2.671v.024h-.018v6.71l-6.791-6.724h-20.05a6.535 6.535 0 00-4.546 1.807 6.195 6.195 0 00-1.668 2.685h-8.642l-2.69-.016v8.039h11.316v-2.657H13.55V21.63h5.557l.01.025h2.887a6.137 6.137 0 001.854 3.54 6.527 6.527 0 004.548 1.806h5.539v-8.013h-8.887c.29-.5.693-.927 1.175-1.248a3.839 3.839 0 011.61-.609h6.072v-.024h13.4l3.053 3.018 1.84 1.825 3.19 3.158L57.304 27h.65v-9.886h6.774a3.685 3.685 0 012.666 1.331 3.624 3.624 0 01.758 3.043 3.629 3.629 0 01-1.066 1.884c-.54.507-1.222.84-1.957.954h-3.054V18.97h-2.69V27h5.928a6.381 6.381 0 003.66-1.743 6.277 6.277 0 001.849-3.582c.03-.198.045-.4.057-.6a3.87 3.87 0 002.578.988h3.638c.297.01.58.135.787.348a1.135 1.135 0 010 1.583c-.207.212-.49.337-.787.348h-1.701a1.032 1.032 0 01-.505-.372 1.017 1.017 0 01-.194-.593h-2.634a3.613 3.613 0 001.075 2.565 3.682 3.682 0 002.592 1.061h1.367a3.859 3.859 0 002.681-1.133 3.787 3.787 0 001.106-2.672c0-1-.397-1.96-1.106-2.672a3.86 3.86 0 00-2.681-1.133v-.012zm-45.847 2.275v2.669h-3.409a3.8 3.8 0 01-1.966-.874 3.744 3.744 0 01-1.165-1.795h6.54zM23.263 7.388l1.044 1.036 1.522 1.509.3-.298.415-.408.123-.124.463-.459 1.199-1.188v5.705h2.263V2.001l-.495.535-4.268 4.227-2.115-2.095-2.15-2.132h-.022L21 2V13.161h2.263V7.388zM40.279 8.656V6.414h-6.305L31.711 6.4v6.763h11.717v-2.24h-9.454V8.656h6.305zM46.976 4.853h3.742v-2.24h-9.492V2.61h-9.515v2.242h13.003v.001h2.262v-.001zM46.734 5.745H44.47v7.419h2.263V5.745zM55.258 13.161h2.672V0l-2.542 2.52-3.19 3.157-1.84 1.826-2.692 2.663v1.591l.002 1.196v.208h.783l6.79-6.726v6.726h.017zM2.69 14.61H0v12.381h10.08v-2.666H2.69v-9.714z" />
  </g>
  <defs>
    <clipPath id="prefix__clip0_722_92">
      <path fill="var(--color-white)" d="M0 0h81v27H0z" />
    </clipPath>
  </defs>
</svg>