<svg viewBox="0 0 62 61" fill="none" xmlns="http://www.w3.org/2000/svg">
  <path d="M50.2929 60.5H3C1.61929 60.5 0.5 59.3807 0.5 58V3C0.5 1.61929 1.61929 0.5 3 0.5H58.5C59.8807 0.5 61 1.61929 61 3V49.7929L55.6464 55.1464L50.2929 60.5Z" stroke="currentColor" stroke-opacity="1"/>
  <path d="M50.2929 60.5H3C1.61929 60.5 0.5 59.3807 0.5 58V3C0.5 1.61929 1.61929 0.5 3 0.5H58.5C59.8807 0.5 61 1.61929 61 3V49.7929L55.6464 55.1464L50.2929 60.5Z" stroke="currentColor" stroke-opacity="0.1"/>
  <path d="M26 25H30V29H26V25ZM24 31V29H26V31H24ZM24 31V35H20V31H24ZM32 31H30V29H32V31ZM36 31H32V35H36V31ZM38 29V31H36V29H38ZM38 29H42V25H38V29Z" fill="currentColor"/>
</svg>
