<svg viewBox="0 0 64 64" fill="none" xmlns="http://www.w3.org/2000/svg">
<path d="M30.8524 0.475294C31.5875 0.170812 32.4135 0.170812 33.1485 0.475294L53.4799 8.8968C54.2149 9.20128 54.799 9.78531 55.1034 10.5204L63.525 30.8517C63.8294 31.5868 63.8294 32.4127 63.525 33.1478L55.1034 53.4791C54.799 54.2142 54.2149 54.7982 53.4799 55.1027L33.1485 63.5242C32.4135 63.8287 31.5875 63.8287 30.8524 63.5242L10.5211 55.1027C9.78604 54.7982 9.20202 54.2142 8.89753 53.4791L0.476026 33.1478C0.171545 32.4127 0.171544 31.5868 0.476026 30.8517L8.89753 10.5204C9.20202 9.78531 9.78604 9.20128 10.5211 8.8968L30.8524 0.475294Z" fill="white"/>
<path d="M37.0005 32.4998L30.2505 36.3969L30.2505 28.6026L37.0005 32.4998Z" fill="#131E2F"/>
</svg>
