<svg viewBox="0 0 60 61" fill="none" xmlns="http://www.w3.org/2000/svg">
<path d="M11.2071 0.500004L57 0.5C58.3807 0.5 59.5 1.61929 59.5 3L59.5 58C59.5 59.3807 58.3807 60.5 57 60.5L3 60.5C1.61929 60.5 0.5 59.3807 0.5 58L0.499996 11.2071L5.85355 5.85356L11.2071 0.500004Z" stroke="currentColor" stroke-opacity="0.1"/>
<path d="M21.2158 33.5276V33.5346C21.5272 34.5917 21.9971 34.8404 22.1826 35.3169C22.2957 35.6006 22.6409 36.0875 23.0529 36.07C23.2516 36.0585 23.4489 36.1116 23.6185 36.2223C23.5577 36.0514 23.501 35.8724 23.4485 35.6852C23.4534 35.6777 23.4592 35.6739 23.465 35.6654C23.465 35.6654 23.4022 34.9458 23.3132 34.0949L23.4912 34.8655C23.9321 36.7669 24.58 37.9384 26.5301 39.3907C26.6578 39.4852 26.7806 39.5736 26.9003 39.6568C26.9603 39.6577 27.0182 39.6334 27.0614 39.5891C27.1046 39.5448 27.1295 39.4842 27.1308 39.4205C27.1315 39.4088 27.1315 39.3971 27.1308 39.3855L26.4505 33.8382C26.4443 33.7886 26.4239 33.7423 26.392 33.7055C26.3602 33.6687 26.3185 33.6432 26.2725 33.6325C25.7887 33.5327 25.3437 33.2823 24.9942 32.913L25.0485 32.6293C24.9012 32.2782 24.8803 31.8819 24.9898 31.5155C24.7469 31.4453 24.5394 31.2772 24.4113 31.047H24.6925C24.7938 30.9291 24.9054 30.8218 25.0258 30.7265L25.3613 29.589C25.0592 28.5238 24.8356 27.4352 24.6925 26.3331C24.5729 25.3952 23.3488 25.2113 22.9987 26.0797C22.8812 26.3695 22.7867 26.6692 22.7161 26.9756C22.3864 28.4227 22.5092 29.6353 22.7384 30.9246C22.5834 30.6972 22.3606 30.5324 22.1061 30.457C21.2923 30.2712 20.7798 31.4025 21.097 33.0255C21.133 33.2122 21.1735 33.3777 21.2158 33.5276Z" fill="currentColor"/>
<path d="M35.311 31.0394H35.5935C35.4654 31.2696 35.2579 31.4376 35.0151 31.5079C35.1242 31.8744 35.1031 32.2706 34.9559 32.6218L35.0102 32.9082C34.6611 33.2811 34.215 33.5343 33.7292 33.6353C33.6834 33.6462 33.6417 33.6717 33.6099 33.7085C33.5781 33.7453 33.5576 33.7915 33.5513 33.841L32.8763 39.3898C32.8725 39.4212 32.8746 39.4532 32.8824 39.4838C32.8902 39.5145 32.9036 39.5431 32.9219 39.5683C32.9402 39.5934 32.9629 39.6144 32.9888 39.6302C33.0147 39.646 33.0433 39.6561 33.073 39.6602H33.0823C33.2011 39.577 33.323 39.4909 33.4498 39.3964C35.3978 37.9374 36.0496 36.7674 36.4865 34.8688L36.6115 34.3294C36.5341 35.0735 36.483 35.6649 36.483 35.6649C36.4945 35.6814 36.5061 35.6928 36.5177 35.707C36.4643 35.8961 36.4064 36.0757 36.3437 36.2483C36.5208 36.1182 36.7338 36.0546 36.9488 36.0677C37.3626 36.0852 37.7079 35.6001 37.8191 35.3146C38.0122 34.838 38.4794 34.5894 38.786 33.5323V33.5252C38.8305 33.3772 38.8692 33.2118 38.9048 33.0279C39.222 31.4006 38.7112 30.2707 37.8952 30.4594C37.6409 30.535 37.4181 30.6998 37.2629 30.9269C37.4921 29.6377 37.6149 28.4256 37.2852 26.978C37.22 26.6712 37.1307 26.3707 37.0182 26.0797C36.6703 25.2094 35.4463 25.3952 35.331 26.3331C35.1869 27.4345 34.9622 28.5223 34.6592 29.5867L34.9946 30.7241C35.109 30.8187 35.2149 30.9242 35.311 31.0394Z" fill="currentColor"/>
<path d="M26.7838 30.1015C27.5312 30.2764 27.9121 30.9132 28.095 31.3779C28.1369 31.4779 28.172 31.5809 28.2 31.6862C28.2165 31.7467 28.228 31.7949 28.236 31.828C28.2356 31.8313 28.2356 31.8346 28.236 31.8379L28.2436 31.8772V31.8843C28.3077 32.1917 28.3227 32.5085 28.2881 32.8213V32.8511C28.2881 32.8511 28.2832 33.2969 28.2254 33.4562C28.176 33.5938 27.5967 33.6481 27.4351 33.6618C27.4351 33.6618 27.3635 33.676 27.242 33.6874L28.0518 40.3192C28.0531 40.328 28.055 40.3367 28.0576 40.3452C28.0652 40.3796 28.0797 40.4119 28.1002 40.4398C28.1208 40.4676 28.1468 40.4903 28.1764 40.5064C28.6139 40.7418 29.0872 40.8928 29.5744 40.9522C29.671 40.9655 29.7746 40.9768 29.8819 40.9848V40.9995H29.9041C29.9364 41.0006 29.9687 40.9986 30.0007 40.9934C30.0331 40.9893 30.0659 40.9914 30.0976 40.9995H30.1199V40.9848C30.256 40.9749 30.3837 40.9593 30.5065 40.9409C30.966 40.8758 31.4119 40.729 31.8253 40.5064C31.8571 40.4892 31.8847 40.4643 31.9058 40.4338C31.927 40.4032 31.9412 40.3679 31.9473 40.3306V40.3192L32.7575 33.6859C32.6396 33.6746 32.5639 33.6604 32.5639 33.6604C32.4024 33.6467 31.8236 33.5923 31.7742 33.4548C31.7159 33.2954 31.7114 32.8496 31.7114 32.8496V32.8184C31.6768 32.5057 31.6918 32.1889 31.7559 31.8814V31.8743L31.7639 31.8351C31.7644 31.8318 31.7644 31.8285 31.7639 31.8252C31.7715 31.7911 31.7831 31.7429 31.7995 31.6833C31.8275 31.578 31.8627 31.4749 31.905 31.3751C32.0879 30.9127 32.4687 30.2759 33.2158 30.0987C33.2933 30.0805 33.372 30.0685 33.4511 30.0627C33.9642 28.4582 34.9573 24.4123 34.0389 22.7544L33.8356 22.3875L33.9642 22.3076C33.9139 22.2726 33.8676 22.2367 33.8133 22.205C32.7057 21.4698 31.4357 21.0567 30.1306 21.0071V20.9995C30.09 20.9986 30.0495 21.0003 30.0091 21.0047C29.9685 21.0073 29.9278 21.0073 29.8872 21.0047V21.0099C28.5774 21.0557 27.3021 21.4675 26.1898 22.2036C26.1386 22.2376 26.0932 22.2736 26.0389 22.3062L26.1675 22.3866L25.9646 22.7529C25.0458 24.4076 26.0389 28.4568 26.5524 30.0613C26.6303 30.069 26.7076 30.0824 26.7838 30.1015Z" fill="currentColor"/>
</svg>
