<svg viewBox="0 0 13 11" fill="none" xmlns="http://www.w3.org/2000/svg">
<path d="M12.07 1.85934C11.6384 2.05059 11.1747 2.17982 10.6872 2.23824C11.1902 1.93728 11.5665 1.46362 11.7459 0.905626C11.2733 1.18631 10.7562 1.38387 10.2168 1.48974C9.85416 1.1025 9.37378 0.845832 8.85028 0.759584C8.32678 0.673335 7.78945 0.762333 7.32171 1.01276C6.85398 1.26318 6.482 1.66103 6.26354 2.14452C6.04508 2.62801 5.99236 3.17011 6.11356 3.68663C5.15607 3.63856 4.21938 3.38969 3.3643 2.95618C2.50922 2.52267 1.75484 1.91421 1.15013 1.17029C0.943363 1.52696 0.824473 1.94049 0.824473 2.3809C0.824242 2.77738 0.921877 3.16778 1.10871 3.51746C1.29555 3.86715 1.56581 4.16532 1.89552 4.3855C1.51315 4.37334 1.13921 4.27002 0.80483 4.08414V4.11516C0.804791 4.67122 0.99714 5.21018 1.34924 5.64057C1.70133 6.07097 2.19149 6.36629 2.73654 6.47643C2.38183 6.57243 2.00994 6.58657 1.64895 6.51778C1.80273 6.99625 2.10229 7.41465 2.50567 7.7144C2.90906 8.01416 3.39609 8.18028 3.89857 8.18949C3.04557 8.85911 1.99213 9.22233 0.907696 9.22073C0.7156 9.22079 0.523667 9.20957 0.332886 9.18714C1.43365 9.89488 2.71501 10.2705 4.02367 10.269C8.45363 10.269 10.8754 6.59997 10.8754 3.41784C10.8754 3.31445 10.8728 3.21004 10.8681 3.10665C11.3392 2.76599 11.7458 2.34415 12.0689 1.86089L12.07 1.85934Z" fill="currentColor"/>
</svg>
