<svg viewBox="0 0 832 356" fill="none" xmlns="http://www.w3.org/2000/svg">
<path d="M250.992 0.199989H194.13L125.569 115.796L57.0065 0.199989H0.144489V164H42.2645V51.68L110.358 164H140.779L208.873 51.68V164H250.992V0.199989ZM438.273 33.662V0.199989H265.113V164H438.273V130.538H307.233V97.31H438.273V66.89H307.233V33.662H438.273ZM646.487 0.199989H445.247V35.534H524.807V164H566.927V35.534H646.487V0.199989ZM784.576 164H831.142L746.434 0.199989H689.572L605.098 164H651.43L668.98 129.134H767.026L784.576 164ZM684.658 97.778L718.12 31.322L751.348 97.778H684.658ZM161.778 320.666V192.2H119.658V356H288.138V320.666H161.778ZM341.967 192.2H299.847V356H341.967V192.2ZM529.112 227.534V192.2H355.952V356H398.072V304.754H515.072V269.186H398.072V227.534H529.112ZM711.587 225.662V192.2H538.427V356H711.587V322.538H580.547V289.31H711.587V258.89H580.547V225.662H711.587Z" fill="currentColor"/>
</svg>
