<svg viewBox="0 0 832 356" fill="none" xmlns="http://www.w3.org/2000/svg">
<path d="M250.993 0.199951H194.131L125.569 115.796L57.0065 0.199951H0.144531V164H42.2645V51.68L110.359 164H140.779L208.873 51.68V164H250.993V0.199951Z" fill="white"/>
<path d="M438.273 33.662V0.199951H265.113V164H438.273V130.538H307.233V97.31H438.273V66.89H307.233V33.662H438.273Z" fill="white"/>
<path d="M646.487 0.199951H445.247V35.534H524.807V164H566.927V35.534H646.487V0.199951Z" fill="white"/>
<path d="M784.577 164H831.143L746.435 0.199951H689.573L605.099 164H651.43L668.981 129.134H767.026L784.577 164ZM684.659 97.778L718.121 31.322L751.349 97.778H684.659Z" fill="white"/>
<path d="M161.778 320.666V192.2H119.658V356H288.138V320.666H161.778Z" fill="white"/>
<path d="M341.967 192.2H299.847V356H341.967V192.2Z" fill="white"/>
<path d="M529.112 227.534V192.2H355.952V356H398.072V304.754H515.073V269.186H398.072V227.534H529.112Z" fill="white"/>
<path d="M711.587 225.662V192.2H538.427V356H711.587V322.538H580.547V289.31H711.587V258.89H580.547V225.662H711.587Z" fill="white"/>
</svg>
